<svg width="50" height="51" viewBox="0 0 50 51" fill="none" xmlns="http://www.w3.org/2000/svg">
<path d="M25.0012 15.6258C19.8349 15.6258 15.6258 19.8349 15.6258 25.0012C15.6258 30.1675 19.8349 34.3767 25.0012 34.3767C30.1675 34.3767 34.3767 30.1675 34.3767 25.0012C34.3767 19.8349 30.1675 15.6258 25.0012 15.6258ZM49.0649 23.4875L39.8164 18.8681L43.088 9.06294C43.5275 7.73475 42.2677 6.47492 40.9493 6.92416L31.1441 10.1958L26.515 0.937546C25.8899 -0.312515 24.1125 -0.312515 23.4875 0.937546L18.8681 10.186L9.05317 6.9144C7.72498 6.47492 6.46516 7.73475 6.9144 9.05317L10.186 18.8583L0.937546 23.4875C-0.312515 24.1125 -0.312515 25.8899 0.937546 26.515L10.186 31.1343L6.9144 40.9493C6.47492 42.2774 7.73475 43.5373 9.05317 43.088L18.8583 39.8164L23.4777 49.0649C24.1027 50.3149 25.8802 50.3149 26.5052 49.0649L31.1246 39.8164L40.9297 43.088C42.2579 43.5275 43.5177 42.2677 43.0685 40.9493L39.7969 31.1441L49.0453 26.5247C50.3149 25.8899 50.3149 24.1125 49.0649 23.4875ZM33.8395 33.8395C28.9662 38.7128 21.0362 38.7128 16.1629 33.8395C11.2896 28.9662 11.2896 21.0362 16.1629 16.1629C21.0362 11.2896 28.9662 11.2896 33.8395 16.1629C38.7128 21.0362 38.7128 28.9662 33.8395 33.8395Z" fill="#FED50D"/>
<circle cx="20.0389" cy="21.3317" r="0.646416" fill="#61481C"/>
<path d="M27.7958 27.7959C27.7958 28.4816 27.5234 29.1393 27.0385 29.6242C26.5536 30.1091 25.8959 30.3815 25.2102 30.3815C24.5244 30.3815 23.8667 30.1091 23.3818 29.6242C22.8969 29.1393 22.6245 28.4816 22.6245 27.7959L25.2102 27.7959H27.7958Z" fill="#61481C"/>
<circle cx="29.7352" cy="21.3317" r="0.646416" fill="#61481C"/>
</svg>
