<svg width="30" height="35" viewBox="0 0 30 35" fill="none" xmlns="http://www.w3.org/2000/svg">
<path d="M5.84687 13.2765V14.4103H3.47997V15.6351H5.25101V16.7358H3.47997V19.0862H2.0648V13.2765H5.84687ZM8.69273 19.1524C8.24032 19.1524 7.83204 19.0558 7.4679 18.8627C7.10928 18.6696 6.82514 18.3938 6.61549 18.0351C6.41135 17.6765 6.30928 17.2572 6.30928 16.7772C6.30928 16.3027 6.41411 15.8862 6.62377 15.5276C6.83342 15.1634 7.12032 14.8848 7.48446 14.6917C7.84859 14.4986 8.25687 14.402 8.70928 14.402C9.1617 14.402 9.56997 14.4986 9.93411 14.6917C10.2982 14.8848 10.5851 15.1634 10.7948 15.5276C11.0045 15.8862 11.1093 16.3027 11.1093 16.7772C11.1093 17.2517 11.0017 17.671 10.7865 18.0351C10.5769 18.3938 10.2872 18.6696 9.91756 18.8627C9.55342 19.0558 9.14514 19.1524 8.69273 19.1524ZM8.69273 17.9276C8.96308 17.9276 9.19204 17.8283 9.37963 17.6296C9.57273 17.431 9.66928 17.1469 9.66928 16.7772C9.66928 16.4076 9.57549 16.1234 9.3879 15.9248C9.20583 15.7262 8.97963 15.6269 8.70928 15.6269C8.43342 15.6269 8.20446 15.7262 8.02239 15.9248C7.84032 16.1179 7.74928 16.402 7.74928 16.7772C7.74928 17.1469 7.83756 17.431 8.01411 17.6296C8.19618 17.8283 8.42239 17.9276 8.69273 17.9276ZM13.9621 19.1524C13.5097 19.1524 13.1014 19.0558 12.7373 18.8627C12.3787 18.6696 12.0945 18.3938 11.8849 18.0351C11.6807 17.6765 11.5787 17.2572 11.5787 16.7772C11.5787 16.3027 11.6835 15.8862 11.8932 15.5276C12.1028 15.1634 12.3897 14.8848 12.7539 14.6917C13.118 14.4986 13.5263 14.402 13.9787 14.402C14.4311 14.402 14.8394 14.4986 15.2035 14.6917C15.5676 14.8848 15.8545 15.1634 16.0642 15.5276C16.2739 15.8862 16.3787 16.3027 16.3787 16.7772C16.3787 17.2517 16.2711 17.671 16.0559 18.0351C15.8463 18.3938 15.5566 18.6696 15.187 18.8627C14.8228 19.0558 14.4145 19.1524 13.9621 19.1524ZM13.9621 17.9276C14.2325 17.9276 14.4614 17.8283 14.649 17.6296C14.8421 17.431 14.9387 17.1469 14.9387 16.7772C14.9387 16.4076 14.8449 16.1234 14.6573 15.9248C14.4752 15.7262 14.249 15.6269 13.9787 15.6269C13.7028 15.6269 13.4739 15.7262 13.2918 15.9248C13.1097 16.1179 13.0187 16.402 13.0187 16.7772C13.0187 17.1469 13.107 17.431 13.2835 17.6296C13.4656 17.8283 13.6918 17.9276 13.9621 17.9276ZM16.8481 16.7689C16.8481 16.2945 16.9364 15.8779 17.1129 15.5193C17.295 15.1607 17.5405 14.8848 17.8495 14.6917C18.1584 14.4986 18.5032 14.402 18.8839 14.402C19.1874 14.402 19.4632 14.4655 19.7115 14.5924C19.9653 14.7193 20.1639 14.8903 20.3074 15.1055V12.962H21.7226V19.0862H20.3074V18.4241C20.175 18.6448 19.9846 18.8214 19.7364 18.9538C19.4936 19.0862 19.2095 19.1524 18.8839 19.1524C18.5032 19.1524 18.1584 19.0558 17.8495 18.8627C17.5405 18.6641 17.295 18.3855 17.1129 18.0269C16.9364 17.6627 16.8481 17.2434 16.8481 16.7689ZM20.3074 16.7772C20.3074 16.4241 20.2081 16.1455 20.0095 15.9414C19.8164 15.7372 19.5791 15.6351 19.2977 15.6351C19.0164 15.6351 18.7764 15.7372 18.5777 15.9414C18.3846 16.14 18.2881 16.4158 18.2881 16.7689C18.2881 17.122 18.3846 17.4034 18.5777 17.6131C18.7764 17.8172 19.0164 17.9193 19.2977 17.9193C19.5791 17.9193 19.8164 17.8172 20.0095 17.6131C20.2081 17.4089 20.3074 17.1303 20.3074 16.7772ZM23.4581 13.9883C23.2098 13.9883 23.0057 13.9165 22.8457 13.7731C22.6912 13.6241 22.614 13.442 22.614 13.2269C22.614 13.0062 22.6912 12.8241 22.8457 12.6807C23.0057 12.5317 23.2098 12.4572 23.4581 12.4572C23.7009 12.4572 23.8995 12.5317 24.054 12.6807C24.214 12.8241 24.294 13.0062 24.294 13.2269C24.294 13.442 24.214 13.6241 24.054 13.7731C23.8995 13.9165 23.7009 13.9883 23.4581 13.9883ZM24.1615 14.4683V19.0862H22.7464V14.4683H24.1615ZM29.5402 16.7027C29.5402 16.8351 29.5319 16.9731 29.5154 17.1165H26.3126C26.3347 17.4034 26.4257 17.6241 26.5857 17.7786C26.7512 17.9276 26.9526 18.002 27.1899 18.002C27.543 18.002 27.7885 17.8531 27.9264 17.5551H29.4326C29.3554 17.8586 29.2147 18.1317 29.0106 18.3745C28.8119 18.6172 28.5609 18.8076 28.2575 18.9455C27.954 19.0834 27.6147 19.1524 27.2395 19.1524C26.7871 19.1524 26.3843 19.0558 26.0312 18.8627C25.6781 18.6696 25.4023 18.3938 25.2037 18.0351C25.005 17.6765 24.9057 17.2572 24.9057 16.7772C24.9057 16.2972 25.0023 15.8779 25.1954 15.5193C25.394 15.1607 25.6699 14.8848 26.023 14.6917C26.3761 14.4986 26.7816 14.402 27.2395 14.402C27.6864 14.402 28.0837 14.4958 28.4312 14.6834C28.7788 14.871 29.0492 15.1386 29.2423 15.4862C29.4409 15.8338 29.5402 16.2393 29.5402 16.7027ZM28.0919 16.3303C28.0919 16.0876 28.0092 15.8945 27.8437 15.751C27.6781 15.6076 27.4712 15.5358 27.223 15.5358C26.9857 15.5358 26.7843 15.6048 26.6188 15.7427C26.4588 15.8807 26.3595 16.0765 26.3209 16.3303H28.0919Z" fill="#D42201"/>
<path d="M29.2241 10.9914C29.2241 9.54797 28.8662 8.1187 28.1709 6.78516C27.4756 5.45162 26.4564 4.23994 25.1716 3.2193C23.8868 2.19866 22.3615 1.38904 20.6828 0.836669C19.0041 0.2843 17.2049 -6.30934e-08 15.3879 0C13.5709 6.30934e-08 11.7717 0.284301 10.093 0.836669C8.41433 1.38904 6.88904 2.19866 5.60423 3.2193C4.31942 4.23994 3.30025 5.45163 2.60491 6.78516C1.90958 8.1187 1.5517 9.54797 1.5517 10.9914L15.3879 10.9914H29.2241Z" fill="#FE8331"/>
<path d="M1.61815 27.4763C1.62687 28.4357 1.99998 29.3825 2.71618 30.2625C3.43237 31.1425 4.47763 31.9385 5.79227 32.6051C7.10691 33.2716 8.66518 33.7957 10.3781 34.1473C12.0911 34.499 13.9251 34.6713 15.7756 34.6545C17.626 34.6376 19.4566 34.432 21.1629 34.0493C22.8692 33.6666 24.4177 33.1143 25.72 32.4239C27.0223 31.7336 28.0529 30.9187 28.753 30.0258C29.453 29.1329 29.8089 28.1795 29.8002 27.2201L15.7092 27.3482L1.61815 27.4763Z" fill="#FE8331"/>
<path d="M1.52408 25.1724V21.4107H2.31941V22.9628H3.93395V21.4107H4.72745V25.1724H3.93395V23.6185H2.31941V25.1724H1.52408ZM6.17301 25.2257C5.993 25.2257 5.83259 25.1945 5.69177 25.132C5.55095 25.0683 5.43951 24.9747 5.35747 24.851C5.27665 24.7261 5.23624 24.5706 5.23624 24.3844C5.23624 24.2277 5.26502 24.0961 5.32257 23.9895C5.38012 23.883 5.45849 23.7973 5.55768 23.7324C5.65687 23.6675 5.76952 23.6185 5.89565 23.5854C6.023 23.5524 6.15648 23.5291 6.29607 23.5156C6.46016 23.4985 6.59241 23.4826 6.69282 23.4679C6.79323 23.452 6.86609 23.4287 6.9114 23.3981C6.95671 23.3675 6.97936 23.3222 6.97936 23.2622V23.2511C6.97936 23.1348 6.94262 23.0448 6.86915 22.9811C6.79691 22.9175 6.69404 22.8856 6.56057 22.8856C6.41975 22.8856 6.30771 22.9168 6.22444 22.9793C6.14117 23.0405 6.08607 23.1177 6.05913 23.2107L5.33543 23.152C5.37216 22.9805 5.44441 22.8323 5.55217 22.7074C5.65993 22.5813 5.79891 22.4846 5.96912 22.4172C6.14056 22.3487 6.33893 22.3144 6.56424 22.3144C6.72098 22.3144 6.87099 22.3327 7.01426 22.3695C7.15875 22.4062 7.28672 22.4632 7.39815 22.5403C7.51081 22.6174 7.59958 22.7166 7.66448 22.8379C7.72938 22.9579 7.76183 23.1017 7.76183 23.2695V25.1724H7.01977V24.7812H6.99773C6.95242 24.8694 6.89181 24.9471 6.81589 25.0145C6.73996 25.0806 6.64874 25.1326 6.5422 25.1706C6.43567 25.2073 6.3126 25.2257 6.17301 25.2257ZM6.3971 24.6857C6.5122 24.6857 6.61384 24.663 6.702 24.6177C6.79017 24.5712 6.85936 24.5087 6.90956 24.4304C6.95977 24.352 6.98487 24.2632 6.98487 24.164V23.8646C6.96038 23.8805 6.92671 23.8952 6.88385 23.9087C6.84221 23.921 6.79507 23.9326 6.74241 23.9436C6.68976 23.9534 6.6371 23.9626 6.58445 23.9712C6.53179 23.9785 6.48404 23.9852 6.44118 23.9914C6.34934 24.0048 6.26913 24.0263 6.20056 24.0557C6.13199 24.085 6.07872 24.1248 6.04076 24.175C6.0028 24.224 5.98382 24.2853 5.98382 24.3587C5.98382 24.4653 6.02239 24.5467 6.09954 24.603C6.17791 24.6581 6.27709 24.6857 6.3971 24.6857ZM8.36889 25.1724V22.3511H9.11463V22.8489H9.1477C9.20647 22.6836 9.30444 22.5532 9.44158 22.4576C9.57873 22.3621 9.74282 22.3144 9.93384 22.3144C10.1273 22.3144 10.292 22.3627 10.4279 22.4595C10.5639 22.555 10.6545 22.6848 10.6998 22.8489H10.7292C10.7867 22.6872 10.8908 22.5581 11.0414 22.4613C11.1933 22.3634 11.3727 22.3144 11.5796 22.3144C11.8429 22.3144 12.0566 22.3983 12.2207 22.566C12.386 22.7325 12.4686 22.9689 12.4686 23.275V25.1724H11.688V23.4293C11.688 23.2726 11.6463 23.155 11.5631 23.0766C11.4798 22.9983 11.3757 22.9591 11.2508 22.9591C11.1088 22.9591 10.998 23.0044 10.9184 23.095C10.8388 23.1844 10.799 23.3026 10.799 23.4495V25.1724H10.0404V23.4128C10.0404 23.2744 10.0006 23.1642 9.92099 23.0822C9.84262 23.0001 9.73914 22.9591 9.61057 22.9591C9.52363 22.9591 9.44526 22.9811 9.37546 23.0252C9.30688 23.0681 9.25239 23.1287 9.21198 23.2071C9.17157 23.2842 9.15137 23.3748 9.15137 23.4789V25.1724H8.36889ZM13.1014 25.1724V21.4107H13.8839V22.825H13.9077C13.942 22.7491 13.9916 22.6719 14.0565 22.5936C14.1227 22.514 14.2084 22.4478 14.3137 22.3952C14.4202 22.3413 14.5525 22.3144 14.7104 22.3144C14.9161 22.3144 15.106 22.3683 15.2798 22.476C15.4537 22.5825 15.5927 22.7436 15.6968 22.9591C15.8009 23.1734 15.8529 23.4422 15.8529 23.7654C15.8529 24.0801 15.8021 24.3459 15.7005 24.5626C15.6 24.7781 15.4629 24.9416 15.289 25.053C15.1164 25.1632 14.9229 25.2183 14.7086 25.2183C14.5567 25.2183 14.4276 25.1932 14.321 25.143C14.2157 25.0928 14.1294 25.0298 14.062 24.9538C13.9947 24.8767 13.9433 24.7989 13.9077 24.7206H13.8728V25.1724H13.1014ZM13.8673 23.7618C13.8673 23.9295 13.8906 24.0759 13.9371 24.2008C13.9837 24.3257 14.051 24.423 14.1392 24.4928C14.2274 24.5614 14.3345 24.5957 14.4606 24.5957C14.588 24.5957 14.6957 24.5608 14.7839 24.491C14.8721 24.42 14.9388 24.322 14.9841 24.1971C15.0306 24.071 15.0539 23.9259 15.0539 23.7618C15.0539 23.5989 15.0313 23.4556 14.9859 23.332C14.9406 23.2083 14.8739 23.1115 14.7857 23.0417C14.6976 22.9719 14.5892 22.937 14.4606 22.937C14.3333 22.937 14.2255 22.9707 14.1373 23.0381C14.0504 23.1054 13.9837 23.2009 13.9371 23.3246C13.8906 23.4483 13.8673 23.594 13.8673 23.7618ZM18.1843 23.9712V22.3511H18.9667V25.1724H18.2155V24.66H18.1861C18.1224 24.8253 18.0165 24.9581 17.8683 25.0585C17.7214 25.159 17.542 25.2092 17.3302 25.2092C17.1416 25.2092 16.9757 25.1663 16.8324 25.0806C16.6891 24.9949 16.5771 24.873 16.4963 24.7151C16.4167 24.5571 16.3762 24.3679 16.375 24.1475V22.3511H17.1575V24.0079C17.1587 24.1744 17.2034 24.3061 17.2916 24.4028C17.3798 24.4995 17.4979 24.5479 17.6461 24.5479C17.7404 24.5479 17.8285 24.5265 17.9106 24.4836C17.9926 24.4395 18.0588 24.3746 18.109 24.2889C18.1604 24.2032 18.1855 24.0973 18.1843 23.9712ZM19.5926 25.1724V22.3511H20.3512V22.8434H20.3806C20.432 22.6683 20.5184 22.536 20.6396 22.4466C20.7608 22.356 20.9004 22.3107 21.0584 22.3107C21.0976 22.3107 21.1398 22.3131 21.1851 22.318C21.2304 22.3229 21.2702 22.3297 21.3045 22.3383V23.0326C21.2678 23.0215 21.217 23.0117 21.1521 23.0032C21.0872 22.9946 21.0278 22.9903 20.9739 22.9903C20.8588 22.9903 20.7559 23.0154 20.6653 23.0656C20.5759 23.1146 20.5049 23.1832 20.4522 23.2713C20.4008 23.3595 20.3751 23.4611 20.3751 23.5762V25.1724H19.5926ZM22.8488 26.2892C22.5953 26.2892 22.378 26.2543 22.1967 26.1845C22.0167 26.1159 21.8735 26.0222 21.7669 25.9035C21.6604 25.7847 21.5912 25.6512 21.5594 25.503L22.2831 25.4057C22.3051 25.462 22.34 25.5147 22.3878 25.5637C22.4355 25.6126 22.4986 25.6518 22.577 25.6812C22.6566 25.7118 22.7533 25.7271 22.8672 25.7271C23.0374 25.7271 23.1776 25.6855 23.2878 25.6022C23.3992 25.5202 23.4549 25.3824 23.4549 25.189V24.6728H23.4219C23.3876 24.7512 23.3362 24.8253 23.2676 24.8951C23.199 24.9649 23.1109 25.0218 23.0031 25.0659C22.8953 25.11 22.7668 25.132 22.6174 25.132C22.4055 25.132 22.2127 25.083 22.0388 24.9851C21.8661 24.8859 21.7284 24.7347 21.6255 24.5314C21.5239 24.3269 21.473 24.0685 21.473 23.7563C21.473 23.4367 21.5251 23.1697 21.6292 22.9554C21.7333 22.7411 21.8716 22.5807 22.0443 22.4742C22.2182 22.3676 22.4086 22.3144 22.6155 22.3144C22.7735 22.3144 22.9057 22.3413 23.0123 22.3952C23.1188 22.4478 23.2045 22.514 23.2694 22.5936C23.3356 22.6719 23.3864 22.7491 23.4219 22.825H23.4513V22.3511H24.2282V25.2C24.2282 25.44 24.1695 25.6408 24.0519 25.8024C23.9344 25.9641 23.7715 26.0853 23.5633 26.1661C23.3564 26.2482 23.1182 26.2892 22.8488 26.2892ZM22.8653 24.5442C22.9915 24.5442 23.098 24.513 23.1849 24.4506C23.2731 24.3869 23.3405 24.2963 23.387 24.1787C23.4347 24.0599 23.4586 23.9179 23.4586 23.7526C23.4586 23.5873 23.4354 23.444 23.3888 23.3228C23.3423 23.2003 23.2749 23.1054 23.1868 23.0381C23.0986 22.9707 22.9915 22.937 22.8653 22.937C22.7368 22.937 22.6284 22.9719 22.5402 23.0417C22.4521 23.1103 22.3853 23.2058 22.34 23.3283C22.2947 23.4507 22.2721 23.5922 22.2721 23.7526C22.2721 23.9154 22.2947 24.0563 22.34 24.175C22.3865 24.2926 22.4533 24.3838 22.5402 24.4487C22.6284 24.5124 22.7368 24.5442 22.8653 24.5442ZM26.1367 25.2275C25.8465 25.2275 25.5966 25.1688 25.3873 25.0512C25.1791 24.9324 25.0187 24.7647 24.906 24.5479C24.7934 24.3299 24.737 24.0722 24.737 23.7746C24.737 23.4844 24.7934 23.2297 24.906 23.0105C25.0187 22.7913 25.1772 22.6205 25.3817 22.4981C25.5875 22.3756 25.8287 22.3144 26.1054 22.3144C26.2916 22.3144 26.4648 22.3444 26.6253 22.4044C26.7869 22.4632 26.9277 22.5519 27.0477 22.6707C27.1689 22.7895 27.2632 22.9389 27.3306 23.1189C27.3979 23.2977 27.4316 23.5071 27.4316 23.7471V23.962H25.0493V23.4771H26.6951C26.6951 23.3644 26.6706 23.2646 26.6216 23.1777C26.5726 23.0907 26.5046 23.0228 26.4177 22.9738C26.332 22.9236 26.2322 22.8985 26.1183 22.8985C25.9995 22.8985 25.8942 22.926 25.8024 22.9811C25.7118 23.035 25.6407 23.1079 25.5893 23.1997C25.5379 23.2903 25.5115 23.3913 25.5103 23.5028V23.9638C25.5103 24.1034 25.536 24.224 25.5875 24.3257C25.6401 24.4273 25.7142 24.5057 25.8097 24.5608C25.9052 24.6159 26.0185 24.6434 26.1495 24.6434C26.2365 24.6434 26.3161 24.6312 26.3883 24.6067C26.4606 24.5822 26.5224 24.5455 26.5738 24.4965C26.6253 24.4475 26.6644 24.3875 26.6914 24.3165L27.4151 24.3642C27.3783 24.5381 27.303 24.69 27.1892 24.8198C27.0765 24.9483 26.9308 25.0487 26.752 25.121C26.5744 25.192 26.3693 25.2275 26.1367 25.2275ZM27.9422 25.1724V22.3511H28.7008V22.8434H28.7302C28.7817 22.6683 28.868 22.536 28.9892 22.4466C29.1104 22.356 29.25 22.3107 29.408 22.3107C29.4472 22.3107 29.4894 22.3131 29.5347 22.318C29.58 22.3229 29.6198 22.3297 29.6541 22.3383V23.0326C29.6174 23.0215 29.5666 23.0117 29.5017 23.0032C29.4368 22.9946 29.3774 22.9903 29.3235 22.9903C29.2084 22.9903 29.1055 23.0154 29.0149 23.0656C28.9255 23.1146 28.8545 23.1832 28.8019 23.2713C28.7504 23.3595 28.7247 23.4611 28.7247 23.5762V25.1724H27.9422Z" fill="#D42201"/>
</svg>
